<svg id="Capa_1" data-name="Capa 1" xmlns="http://www.w3.org/2000/svg" viewBox="0 0 363.18 360.99"><defs><style>.cls-1{fill:none;stroke-width:25px;}.cls-1,.cls-2{stroke:#1d1d1b;stroke-miterlimit:10;}.cls-2{fill:#1d1d1b;stroke-width:2px;}</style></defs><title>DS</title><path class="cls-1" d="M465.69,403.5c5.3,89.53-61,168-167.22,170.91-88.53,2.46-170.67-75.65-170.67-169s72.64-167,170.67-167C392.73,238.47,460.79,320.84,465.69,403.5Z" transform="translate(-115.3 -225.97)"/><circle class="cls-1" cx="200.33" cy="193.25" r="148.61"/><path class="cls-2" d="M374.4,543.84s14.75-8.31,19.44-20.52c9.13-23.76-2.76-42.75,11.16-60.48,13.24-16.86,34.4-11.93,43.2-28.8,6.2-11.89,3.24-34.22,3.24-34.22,2.55-1.19,10.76,49-8.64,81.74S374.4,543.84,374.4,543.84Z" transform="translate(-115.3 -225.97)"/></svg>